<svg width="673" height="447" viewBox="0 0 673 447" fill="none" xmlns="http://www.w3.org/2000/svg">
<path d="M340.936 125.634C334.935 115.707 327.825 105.107 316.689 101.866C303.793 98.1118 290.545 105.569 279.308 112.928C245.703 134.936 213.34 158.786 182.369 184.369L182.403 184.755C206.515 183.091 230.628 181.428 254.74 179.765C272.161 178.563 290.181 177.196 305.577 168.952C311.419 165.824 317.114 161.646 323.734 161.355C331.958 160.993 339.13 166.739 344.766 172.741C378.103 208.25 387.751 262.552 425.152 293.749C401.568 235.572 373.408 179.357 340.936 125.634Z" fill="#F2F2F2"/>
<path d="M545.858 426.814C542.171 422.158 540.665 421.067 537.028 416.368C507.418 378.062 479.588 338.463 453.536 297.57C435.84 269.797 419.022 241.49 403.082 212.65C395.493 198.94 388.112 185.121 380.939 171.195C375.373 160.397 369.931 149.535 364.614 138.608C363.093 135.487 361.616 132.352 360.145 129.209C356.681 121.819 353.281 114.394 349.63 107.104C345.47 98.7959 340.406 90.0858 332.766 84.504C329.29 81.8594 325.132 80.2593 320.78 79.8907C314.562 79.4889 308.823 82.0574 303.429 84.8627C263.964 105.447 227.017 131.254 193.599 160.62C160.095 190.052 130.148 223.303 104.368 259.695C103.579 260.821 101.714 259.745 102.51 258.611C105.645 254.177 108.842 249.791 112.1 245.453C152.622 191.547 202.307 145.191 258.886 108.503C268.404 102.333 278.102 96.4521 287.979 90.8607C292.957 88.041 297.956 85.2573 303.042 82.6457C308.027 80.0844 313.321 77.7813 319.016 77.6952C338.397 77.3939 348.432 99.3483 355.325 114.121C357.491 118.77 359.684 123.405 361.902 128.025C370.287 145.567 378.995 162.949 388.026 180.171C393.599 190.804 399.295 201.374 405.112 211.883C423.216 244.606 442.458 276.668 462.839 308.066C489.838 349.658 516.621 386.399 547.378 425.293C548.225 426.369 546.712 427.904 545.858 426.814Z" fill="#E4E4E4"/>
<path d="M191.683 149.779C190.557 148.523 189.438 147.268 188.305 146.012C179.368 136.126 169.778 126.354 157.505 120.686C151.653 117.898 145.265 116.417 138.783 116.345C132.084 116.367 125.535 118.124 119.345 120.585C116.419 121.755 113.556 123.082 110.738 124.495C107.517 126.117 104.354 127.846 101.205 129.589C95.2944 132.861 89.4605 136.276 83.7033 139.835C72.2481 146.916 61.1516 154.538 50.4139 162.7C44.8476 166.934 39.3962 171.305 34.0596 175.816C29.0961 180.006 24.2329 184.308 19.4701 188.723C18.4516 189.663 16.9309 188.142 17.9494 187.202C19.2046 186.032 20.4743 184.87 21.7439 183.722C25.3303 180.479 28.9742 177.299 32.6755 174.18C39.4249 168.483 46.3491 163.007 53.4481 157.75C64.4872 149.571 75.9063 141.947 87.7055 134.877C93.6017 131.347 99.5791 127.966 105.638 124.732C107.467 123.756 109.318 122.802 111.19 121.898C115.437 119.755 119.851 117.958 124.388 116.524C130.814 114.445 137.613 113.777 144.321 114.566C150.798 115.508 157.038 117.667 162.712 120.93C174.763 127.667 184.109 138.084 193.204 148.251C194.122 149.284 192.609 150.812 191.683 149.779Z" fill="#E4E4E4"/>
<path d="M438.59 252.231L467.466 241.667L481.802 236.422C486.472 234.714 491.13 232.769 495.957 231.546C500.151 230.348 504.605 230.404 508.768 231.709C512.48 233.084 515.878 235.191 518.76 237.905C521.705 240.617 524.444 243.544 526.956 246.66C530.078 250.412 533.153 254.204 536.242 257.983C548.991 273.578 561.657 289.242 574.24 304.973C586.822 320.704 599.32 336.502 611.734 352.366C624.178 368.269 636.537 384.239 648.81 400.276C650.314 402.24 651.816 404.206 653.317 406.172C654.146 407.258 656.016 406.187 655.175 405.086C642.811 388.888 630.361 372.757 617.825 356.692C605.258 340.588 592.605 324.553 579.864 308.587C567.124 292.62 554.297 276.723 541.385 260.895C538.168 256.952 534.946 253.013 531.718 249.078C528.996 245.759 526.304 242.405 523.318 239.315C517.837 233.645 510.988 228.634 502.791 228.498C497.971 228.418 493.307 229.948 488.829 231.568C484.002 233.315 479.186 235.095 474.365 236.858L445.287 247.496L438.018 250.156C436.728 250.628 437.285 252.709 438.59 252.231L438.59 252.231Z" fill="#E4E4E4"/>
<path d="M153.705 133.126C139.031 125.583 120.239 127.06 106.754 136.485C132.475 140.923 157.914 146.862 182.941 154.271C172.548 148.179 164.418 138.634 153.705 133.126Z" fill="#F2F2F2"/>
<path d="M106.61 136.459L103.785 138.755C104.741 137.951 105.734 137.198 106.754 136.485C106.706 136.476 106.658 136.467 106.61 136.459Z" fill="#F2F2F2"/>
<path d="M517.673 252.337C514.831 248.876 511.758 245.252 507.506 243.846L503.537 244.003C533.753 297.409 574.562 344.075 623.459 381.137C588.197 338.203 552.935 295.27 517.673 252.337Z" fill="#F2F2F2"/>
<path d="M270.841 223.787C272.678 230.462 276.816 236.273 282.523 240.19C284.73 241.693 287.341 243.134 288.096 245.695C288.493 247.328 288.248 249.051 287.412 250.509C286.578 251.947 285.562 253.273 284.391 254.454L284.284 254.855C278.808 251.609 273.599 247.503 270.574 241.901C267.549 236.299 267.127 228.957 270.841 223.787" fill="#F2F2F2"/>
<path d="M453.149 382.662C454.986 389.337 459.124 395.147 464.832 399.065C467.038 400.567 469.649 402.009 470.404 404.57C470.801 406.203 470.556 407.926 469.72 409.383C468.886 410.822 467.871 412.148 466.699 413.329L466.592 413.73C461.116 410.484 455.907 406.378 452.882 400.776C449.857 395.174 449.435 387.832 453.149 382.662" fill="#F2F2F2"/>
<path d="M89.315 371.705C91.1519 378.38 95.2902 384.19 100.998 388.108C103.204 389.61 105.815 391.052 106.57 393.613C106.967 395.246 106.722 396.969 105.886 398.426C105.052 399.865 104.037 401.191 102.865 402.372L102.758 402.773C97.2824 399.527 92.0729 395.421 89.0481 389.819C86.0233 384.217 85.601 376.875 89.315 371.705" fill="#F2F2F2"/>
<path d="M507.997 79.8287C530.036 79.8287 547.902 61.9584 547.902 39.9143C547.902 17.8703 530.036 0 507.997 0C485.959 0 468.093 17.8703 468.093 39.9143C468.093 61.9584 485.959 79.8287 507.997 79.8287Z" fill="#56AEC3"/>
<path d="M580.009 9.29017C560.67 6.67543 538.591 17.1311 533.578 35.9964C532.315 32.6422 530.019 29.7764 527.021 27.8132C524.022 25.85 520.478 24.891 516.899 25.0746C513.32 25.2583 509.893 26.5752 507.111 28.8351C504.33 31.095 502.339 34.1808 501.425 37.6468L503.639 39.2329C545.083 48.1974 587.984 48.0034 629.345 38.6644C615.893 24.5231 599.349 11.9049 580.009 9.29017Z" fill="#F0F0F0"/>
<path d="M497.071 62.5093C477.732 59.8945 455.652 70.3502 450.64 89.2155C449.377 85.8613 447.08 82.9956 444.082 81.0323C441.084 79.0691 437.539 78.1101 433.961 78.2938C430.382 78.4774 426.954 79.7943 424.173 82.0542C421.391 84.3141 419.4 87.3999 418.487 90.8659L420.701 92.452C462.145 101.417 505.045 101.223 546.407 91.8835C532.954 77.7422 516.41 65.124 497.071 62.5093Z" fill="#F0F0F0"/>
<path d="M665.864 72.5723C665.784 72.5725 665.704 72.5601 665.628 72.5356C458.746 7.09318 276.408 15.6509 159.875 34.3539C144.016 36.8983 128.115 39.8369 112.613 43.089C108.655 43.9183 104.549 44.8071 100.41 45.7327C95.4654 46.834 90.5871 47.9682 85.9092 49.1025C83.889 49.5809 81.9082 50.0632 79.9668 50.5493C77.0262 51.2753 74.0424 52.032 70.8438 52.8635C67.2698 53.7852 63.6384 54.7521 60.0482 55.7372C60.0351 55.7419 60.0217 55.7457 60.0081 55.7487L60.0085 55.7495C55.9534 56.8569 51.9197 57.9965 48.019 59.1345C45.9078 59.7444 43.8692 60.3459 41.9165 60.9398C41.6984 61.0002 41.5051 61.0583 41.3091 61.1179L40.8896 61.2455C40.6466 61.3196 40.4067 61.3922 40.1667 61.461L40.1515 61.4656L40.1518 61.4664L39.5169 61.6636C38.7596 61.8929 38.0208 62.1168 37.2941 62.34C18.0892 68.2618 7.53162 72.4745 7.42732 72.5158C7.33195 72.554 7.22998 72.5731 7.12724 72.5719C7.02449 72.5707 6.92298 72.5493 6.82851 72.5089C6.73403 72.4685 6.64844 72.4099 6.57662 72.3364C6.5048 72.2629 6.44816 72.1759 6.40992 72.0805C6.37169 71.9851 6.35263 71.8831 6.35381 71.7804C6.35499 71.6776 6.37639 71.5761 6.4168 71.4816C6.45721 71.3871 6.51582 71.3015 6.58931 71.2296C6.66279 71.1578 6.7497 71.1011 6.84508 71.0629C6.95015 71.0216 17.5593 66.7874 36.8341 60.8435C37.5635 60.6196 38.3042 60.3957 39.0638 60.1656L39.6536 59.9822C39.6739 59.9745 39.6941 59.9684 39.7148 59.9623C39.9535 59.8943 40.1919 59.8217 40.4342 59.7483L40.8544 59.6207C41.0638 59.5572 41.2701 59.4946 41.4814 59.4365C43.4207 58.8464 45.4662 58.2434 47.5827 57.6312C51.485 56.4924 55.5225 55.3529 59.5806 54.2439C59.5932 54.2393 59.6062 54.2362 59.6188 54.2324V54.2316C63.2216 53.2434 66.8663 52.2728 70.4519 51.348C73.6553 50.5157 76.6449 49.7575 79.5905 49.0299C81.5401 48.5446 83.5247 48.0613 85.5444 47.58C90.2275 46.4443 95.1159 45.3085 100.069 44.2049C104.215 43.2786 108.328 42.3874 112.292 41.5574C127.818 38.3 143.744 35.3567 159.627 32.8086C276.327 14.0788 458.926 5.50726 666.099 71.0437C666.278 71.0999 666.43 71.2181 666.528 71.3768C666.627 71.5355 666.666 71.7243 666.637 71.909C666.609 72.0936 666.515 72.2621 666.373 72.3837C666.232 72.5054 666.051 72.5723 665.864 72.5723Z" fill="#CCCCCC"/>
<path d="M205.773 328.581C205.502 327.789 205.046 327.072 204.442 326.492C204.22 326.285 203.979 326.099 203.723 325.936C201.68 324.574 198.629 324.269 196.689 325.936C196.493 326.105 196.312 326.291 196.149 326.492C195.57 327.204 194.975 327.9 194.365 328.581C193.363 329.724 192.338 330.827 191.266 331.9C190.961 332.197 190.656 332.502 190.343 332.8C190.163 332.98 189.983 333.152 189.803 333.324C189.115 333.981 188.41 334.615 187.698 335.241C187.323 335.578 186.947 335.907 186.564 336.228C185.993 336.705 185.421 337.182 184.842 337.644C184.788 337.683 184.733 337.722 184.678 337.769C184.662 337.777 184.655 337.793 184.639 337.801C184.631 337.801 184.623 337.801 184.615 337.816C184.594 337.825 184.576 337.838 184.561 337.855C184.389 337.973 184.271 338.051 184.185 338.121C184.216 338.106 184.248 338.082 184.279 338.067C184.138 338.176 183.99 338.286 183.849 338.395C182.479 339.405 181.079 340.375 179.647 341.283C176.104 343.551 172.383 345.527 168.521 347.192C168.263 347.294 167.997 347.403 167.73 347.505C157.617 351.65 146.647 353.267 135.768 352.217C134.657 352.131 133.546 352.013 132.435 351.865C131.151 351.677 129.876 351.45 128.609 351.191C123.783 350.228 119.061 348.803 114.509 346.934C108.814 344.326 103.399 341.148 98.3438 337.448C97.5614 336.893 96.7711 336.337 95.9808 335.797C96.8806 333.59 97.7648 331.383 98.6255 329.16C99.0558 328.088 99.4705 327.016 99.8774 325.936C103.078 317.616 106.082 309.219 108.961 300.79C111.872 292.251 114.619 283.663 117.201 275.025C117.467 274.149 117.725 273.272 117.975 272.396C119.329 267.833 120.628 263.26 121.872 258.676C121.989 258.23 122.114 257.792 122.224 257.346C122.584 256.031 122.936 254.716 123.28 253.401C124.063 250.435 122.294 246.89 119.18 246.178C117.681 245.793 116.091 246.006 114.745 246.771C113.399 247.536 112.403 248.793 111.966 250.279C111.63 251.546 111.293 252.806 110.949 254.074C109.298 260.202 107.561 266.31 105.738 272.396C105.472 273.272 105.206 274.149 104.94 275.025C100.918 288.283 96.5025 301.408 91.6931 314.4C91.1141 315.973 90.5272 317.541 89.9326 319.103C89.6431 319.87 89.3536 320.637 89.0562 321.404C88.4851 322.915 87.8983 324.425 87.3114 325.936C86.9749 326.82 86.6307 327.705 86.2864 328.581C86.0595 329.137 85.8404 329.692 85.6214 330.24C83.3905 329.439 81.0791 328.883 78.7281 328.581L78.3525 328.534C76.5297 328.315 74.6863 328.331 72.8676 328.581C70.1455 328.899 67.5265 329.811 65.1956 331.252C62.8647 332.694 60.8788 334.63 59.3784 336.924C55.6461 342.802 55.6931 351.207 60.9276 356.2C66.3186 361.342 74.4794 361.303 80.825 358.086C84.1877 356.267 87.0232 353.608 89.0562 350.37C89.8351 349.196 90.5508 347.981 91.2001 346.73C91.3645 346.84 91.5288 346.95 91.6931 347.067C92.319 347.505 92.945 347.951 93.5631 348.39C97.1647 350.999 100.96 353.331 104.916 355.363C113.423 359.593 122.58 362.363 132.004 363.557C132.216 363.581 132.419 363.612 132.63 363.635C133.671 363.768 134.719 363.87 135.768 363.956C150.808 365.09 165.867 362.011 179.256 355.066C180.39 354.479 181.514 353.863 182.628 353.218C184.357 352.217 186.047 351.152 187.698 350.025C188.598 349.415 189.474 348.797 190.343 348.147C194.138 345.351 197.676 342.221 200.914 338.795C202.142 337.503 203.318 336.17 204.442 334.795C205.506 333.671 206.118 332.194 206.164 330.647C206.158 329.941 206.025 329.241 205.773 328.581ZM76.2086 347.223C76.3729 347.106 76.5372 346.981 76.6937 346.856C76.6468 346.973 76.4199 347.106 76.2086 347.223H76.2086ZM78.7202 344.696C78.5403 344.899 78.376 345.103 78.196 345.306C77.6485 345.919 77.0604 346.494 76.4355 347.028C76.3494 347.106 76.2556 347.184 76.1617 347.255C76.1606 347.255 76.1596 347.255 76.1586 347.255C76.1577 347.256 76.1568 347.256 76.1561 347.257C76.1554 347.258 76.1548 347.259 76.1544 347.26C76.154 347.261 76.1538 347.262 76.1538 347.263C76.0408 347.313 75.9311 347.371 75.8252 347.435C75.4887 347.638 75.1445 347.826 74.7924 347.998C74.103 348.252 73.3938 348.449 72.672 348.585C72.1174 348.626 71.5607 348.631 71.0054 348.601H70.9897C70.6065 348.516 70.2279 348.411 69.8552 348.288C69.6674 348.194 69.4875 348.084 69.3075 347.975C69.2371 347.912 69.1744 347.85 69.1354 347.81C69.0589 347.741 68.9883 347.665 68.9242 347.584C68.9242 347.582 68.924 347.581 68.9236 347.58C68.9232 347.58 68.9226 347.579 68.9219 347.578C68.9212 347.577 68.9203 347.577 68.9193 347.576C68.9184 347.576 68.9174 347.576 68.9163 347.576C68.8302 347.419 68.7363 347.263 68.6503 347.106C68.6458 347.102 68.643 347.096 68.6425 347.09C68.5799 346.895 68.5251 346.691 68.4782 346.488C68.4612 346.131 68.4638 345.773 68.486 345.416C68.591 344.916 68.7322 344.424 68.9085 343.944C69.0669 343.604 69.2473 343.275 69.4484 342.958C69.464 342.927 69.5423 342.802 69.6284 342.661C69.6362 342.653 69.6362 342.653 69.6362 342.645C69.7535 342.512 69.8709 342.371 69.9961 342.246C70.2074 342.011 70.4343 341.808 70.6612 341.596C71.1025 341.307 71.5596 341.044 72.0304 340.806C72.7774 340.54 73.5439 340.334 74.323 340.188C75.4718 340.096 76.6265 340.107 77.7735 340.219C78.86 340.407 79.9319 340.672 80.9815 341.009C80.3453 342.244 79.621 343.432 78.8142 344.563C78.7828 344.609 78.7516 344.656 78.7202 344.696ZM70.0195 342.121C69.9506 342.231 69.8692 342.334 69.777 342.426C69.8391 342.311 69.9212 342.207 70.0195 342.121Z" fill="#EE5076"/>
<path d="M182.252 248.651C182.182 251.108 182.112 253.566 182.041 256.023C181.893 261.478 181.739 266.936 181.58 272.396C181.415 278.54 181.243 284.681 181.063 290.819C180.977 293.989 180.888 297.158 180.797 300.328C180.555 308.867 180.315 317.403 180.077 325.936C180.054 326.82 180.023 327.697 179.999 328.581C179.882 332.815 179.764 337.049 179.647 341.283C179.514 345.877 179.384 350.471 179.256 355.066C179.162 358.509 179.065 361.955 178.966 365.404C178.262 390.394 177.558 415.383 176.854 440.373C176.824 441.92 176.196 443.396 175.102 444.49C174.008 445.585 172.532 446.213 170.985 446.242C169.433 446.23 167.947 445.608 166.85 444.509C165.752 443.411 165.13 441.926 165.117 440.373C165.508 426.317 165.905 412.26 166.306 398.204C166.658 385.494 167.016 372.784 167.378 360.074C167.496 355.887 167.613 351.698 167.73 347.505C167.91 341.197 168.088 334.889 168.262 328.581C168.286 327.697 168.317 326.82 168.341 325.936C168.356 325.161 168.38 324.394 168.403 323.619C168.748 311.371 169.092 299.12 169.436 286.867C169.577 282.046 169.713 277.222 169.843 272.396C169.999 266.894 170.156 261.395 170.312 255.898C170.383 253.48 170.446 251.069 170.516 248.651C170.546 247.103 171.173 245.628 172.268 244.533C173.362 243.439 174.837 242.811 176.384 242.781C177.937 242.794 179.422 243.416 180.52 244.514C181.618 245.612 182.24 247.098 182.252 248.651Z" fill="#EE5076"/>
<path d="M504.17 250.28C498.016 273.586 490.662 296.559 482.135 319.105C479.783 325.325 477.376 331.531 474.803 337.663L475.394 336.261C474.246 339.182 472.779 341.967 471.021 344.566C470.901 344.734 470.779 344.9 470.656 345.064C471.264 344.287 471.379 344.133 471.002 344.603C470.803 344.839 470.607 345.075 470.401 345.304C469.854 345.917 469.266 346.493 468.642 347.028C468.485 347.163 468.325 347.294 468.163 347.423L468.897 346.852C468.812 347.053 468.214 347.32 468.028 347.434C467.425 347.798 466.796 348.116 466.146 348.388L467.548 347.796C466.483 348.225 465.372 348.53 464.237 348.704L465.797 348.495C464.682 348.649 463.553 348.661 462.435 348.531L463.995 348.74C463.08 348.614 462.185 348.373 461.33 348.023L462.732 348.614C462.277 348.416 461.837 348.181 461.419 347.913C461.206 347.774 460.554 347.28 461.407 347.932C462.294 348.61 461.521 347.99 461.338 347.81C461.186 347.66 461.049 347.497 460.901 347.345C460.21 346.637 461.68 348.563 461.211 347.735C460.96 347.32 460.731 346.892 460.524 346.454L461.115 347.856C460.846 347.189 460.655 346.492 460.546 345.781L460.755 347.341C460.643 346.457 460.643 345.561 460.753 344.676L460.543 346.237C460.687 345.249 460.948 344.282 461.322 343.357L460.73 344.759C460.991 344.136 461.299 343.535 461.652 342.96C461.815 342.663 462.005 342.382 462.222 342.121C462.26 342.134 461.229 343.305 461.776 342.714C461.92 342.559 462.053 342.396 462.198 342.243C462.43 341.997 462.678 341.773 462.922 341.54C463.74 340.762 461.779 342.296 462.722 341.68C463.405 341.231 464.125 340.838 464.873 340.507L463.471 341.099C464.724 340.584 466.037 340.231 467.379 340.05L465.819 340.26C467.5 340.066 469.199 340.086 470.874 340.319L469.314 340.11C471.437 340.432 473.511 341.015 475.489 341.847L474.087 341.255C478.305 343.066 482.039 345.755 485.768 348.392C489.369 351 493.163 353.33 497.118 355.362C505.625 359.593 514.782 362.364 524.208 363.559C537.725 365.215 551.441 363.45 564.098 358.424C576.756 353.399 587.949 345.274 596.65 334.796C597.712 333.669 598.323 332.193 598.369 330.645C598.358 329.091 597.741 327.602 596.65 326.495C594.497 324.518 590.43 323.96 588.351 326.495C586.381 328.901 584.262 331.182 582.008 333.325C580.956 334.323 579.876 335.291 578.767 336.228C578.134 336.763 577.492 337.288 576.842 337.802C576.534 338.045 575.575 338.693 577.047 337.648C576.71 337.887 576.386 338.149 576.053 338.395C571.126 342.029 565.786 345.067 560.145 347.446L561.546 346.854C555.493 349.394 549.136 351.136 542.634 352.037L544.194 351.828C537.505 352.708 530.73 352.698 524.043 351.798L525.603 352.007C518.919 351.089 512.381 349.308 506.154 346.709L507.556 347.3C501.547 344.641 495.845 341.337 490.549 337.446C487.793 335.405 484.886 333.575 481.854 331.972C478.321 330.168 474.496 329.005 470.557 328.538C463.171 327.668 455.646 330.546 451.586 336.928C447.849 342.801 447.897 351.206 453.13 356.2C458.519 361.344 466.681 361.301 473.032 358.083C479.148 354.984 482.822 348.546 485.406 342.476C491.22 328.815 496.368 314.838 501.164 300.791C505.909 286.892 510.212 272.854 514.073 258.674C514.551 256.918 515.023 255.16 515.487 253.4C516.27 250.435 514.5 246.889 511.388 246.18C509.889 245.794 508.297 246.005 506.951 246.77C505.604 247.535 504.607 248.793 504.17 250.28L504.17 250.28Z" fill="#EE5076"/>
<path d="M562.722 248.65L560.609 323.621L558.508 398.202L557.32 440.373C557.333 441.926 557.956 443.411 559.053 444.509C560.151 445.607 561.636 446.23 563.188 446.243C564.735 446.213 566.211 445.585 567.305 444.49C568.399 443.396 569.027 441.92 569.057 440.373L571.169 365.402L573.27 290.822L574.458 248.65C574.445 247.098 573.823 245.612 572.725 244.514C571.627 243.417 570.142 242.794 568.59 242.781C567.043 242.811 565.568 243.439 564.474 244.533C563.379 245.627 562.752 247.103 562.722 248.65Z" fill="#EE5076"/>
<path opacity="0.2" d="M359.602 419.441H361.424V336.449H403.933V334.631H361.424V299.613H394.252C393.771 299.001 393.275 298.396 392.766 297.8H361.424V274.67C360.821 274.413 360.214 274.166 359.602 273.932V297.8H323.882V268.165C323.27 268.193 322.667 268.235 322.06 268.286V297.8H293.563V275.689C292.951 275.96 292.349 276.245 291.751 276.545V297.8H267.796V299.613H291.751V334.631H267.796V336.449H291.751V419.441H293.563V336.449C297.306 336.449 301.012 337.185 304.469 338.617C307.927 340.05 311.069 342.149 313.715 344.796C316.361 347.443 318.46 350.586 319.892 354.044C321.324 357.503 322.061 361.21 322.06 364.953V419.441H323.882V336.449H359.602V419.441ZM293.563 334.631V299.613H322.06V334.631H293.563ZM323.882 334.631V299.613H324.597C329.194 299.613 333.746 300.519 337.994 302.279C342.241 304.039 346.1 306.619 349.35 309.87C352.601 313.122 355.179 316.983 356.938 321.231C358.697 325.48 359.602 330.033 359.602 334.631H323.882Z" fill="black"/>
<path d="M348.474 394.557C346.18 404.793 340.685 414.031 332.786 420.932C332.207 421.433 331.628 421.918 331.025 422.395C329.562 422.529 328.109 422.664 326.667 422.802C325.47 422.912 324.288 423.029 323.115 423.139L322.904 423.163L322.755 421.879L322.16 416.682C319.853 412.915 318.424 408.677 317.977 404.282C317.53 399.887 318.077 395.448 319.578 391.294C321.644 385.721 325.384 380.798 329.061 375.915C334.139 369.169 339.077 362.501 339.257 354.275C341.755 357.473 343.833 360.98 345.438 364.708C343.923 365.421 342.562 366.423 341.432 367.658C341.111 368.01 340.79 368.503 341.009 368.926C341.197 369.286 341.667 369.372 342.073 369.419C343.051 369.521 344.037 369.622 345.015 369.724C345.798 369.81 346.58 369.889 347.363 369.975C348.309 373.082 348.951 376.275 349.28 379.507C349.807 384.535 349.535 389.614 348.474 394.557Z" fill="#EE5076"/>
<path d="M374.451 374.044C369.834 377.402 367.135 382.231 365.038 387.553C362.889 388.241 360.955 389.476 359.428 391.137C359.107 391.489 358.786 391.982 359.005 392.405C359.193 392.765 359.663 392.851 360.069 392.898C361.048 393 362.033 393.102 363.011 393.203C360.914 399.496 358.99 406.007 355.281 411.321C352.814 414.83 349.599 417.746 345.868 419.86C344.851 420.44 343.801 420.96 342.723 421.417C338.748 421.723 334.849 422.049 331.025 422.396C329.562 422.529 328.109 422.664 326.667 422.803C325.47 422.912 324.289 423.03 323.115 423.139C323.107 422.709 323.107 422.278 323.115 421.848C323.362 410.381 327.58 399.356 335.047 390.652C335.399 390.245 335.759 389.846 336.127 389.447C339.91 385.405 344.359 382.043 349.28 379.507C357.033 375.475 365.724 373.589 374.451 374.044Z" fill="#56AEC3"/>
<path d="M328.021 418.788L327.121 421.449L326.667 422.803C325.47 422.912 324.289 423.03 323.115 423.139L322.904 423.163C321.605 423.296 320.314 423.429 319.023 423.562C318.686 423.17 318.35 422.771 318.021 422.364C309.854 412.472 305.934 399.748 307.117 386.974C308.3 374.199 314.491 362.412 324.336 354.189C323.303 359.597 324.508 364.778 326.487 369.92C326.276 370.006 326.073 370.092 325.877 370.186C324.362 370.899 323.001 371.901 321.871 373.136C321.55 373.489 321.229 373.982 321.448 374.404C321.636 374.764 322.106 374.85 322.512 374.897C323.49 374.999 324.476 375.101 325.454 375.203C326.237 375.289 327.019 375.367 327.802 375.453C328.169 375.492 328.537 375.531 328.905 375.571C328.96 375.688 329.007 375.797 329.061 375.915C331.291 380.752 333.693 385.612 335.047 390.652C335.386 391.916 335.653 393.199 335.845 394.495C336.448 398.872 336.057 403.328 334.703 407.534C333.348 411.739 331.064 415.586 328.021 418.788Z" fill="#56AEC3"/>
<path d="M406.78 305.275C400.044 292.133 389.608 281.075 377.335 272.949C365.022 264.834 350.893 259.893 336.208 258.564C334.283 258.389 332.353 258.287 330.418 258.257C328.133 258.223 293.749 268.143 282.23 276.244C270.718 284.245 261.248 294.842 254.584 307.179C247.932 319.583 244.66 333.519 245.097 347.589C245.667 361.743 249.611 375.555 256.601 387.875C263.495 400.156 273.284 410.565 285.116 418.199C297.117 425.859 309.172 446.167 323.342 446.884C337.618 447.606 353.899 428.449 366.92 422.633C379.94 416.767 391.197 407.591 399.567 396.019C407.702 384.678 412.964 371.533 414.903 357.711C416.916 343.558 415.978 328.963 411.146 315.436C409.906 311.96 408.448 308.566 406.78 305.275C405.387 302.531 401.306 301.521 398.751 303.169C397.434 303.98 396.481 305.267 396.089 306.762C395.697 308.258 395.896 309.847 396.645 311.2C397.463 312.811 398.224 314.449 398.927 316.113L398.335 314.711C400.995 321.109 402.804 327.829 403.715 334.698L403.506 333.137C404.475 340.59 404.458 348.137 403.454 355.585L403.664 354.025C402.649 361.472 400.662 368.754 397.753 375.684L398.344 374.282C396.848 377.817 395.103 381.243 393.124 384.533C392.121 386.195 391.057 387.818 389.931 389.402C389.437 390.097 388.927 390.78 388.414 391.461C387.744 392.35 389.327 390.3 388.635 391.172C388.517 391.321 388.4 391.47 388.281 391.618C387.926 392.062 387.566 392.502 387.2 392.938C384.761 395.85 382.099 398.567 379.238 401.065C378.525 401.687 377.801 402.295 377.064 402.889C376.698 403.185 376.335 403.494 375.953 403.77C375.967 403.759 377.189 402.831 376.466 403.37C376.238 403.539 376.013 403.711 375.785 403.88C374.267 405.005 372.709 406.072 371.111 407.082C367.43 409.401 363.57 411.42 359.565 413.119L360.967 412.527C354.06 415.436 346.8 417.423 339.374 418.437L340.934 418.228C333.513 419.231 325.99 419.244 318.565 418.267L320.125 418.477C313.377 417.571 306.776 415.786 300.49 413.167L301.891 413.759C298.251 412.221 294.74 410.392 291.394 408.288C289.738 407.244 288.126 406.136 286.556 404.963C286.332 404.796 286.11 404.626 285.887 404.458C285.171 403.917 286.402 404.857 286.411 404.863C285.995 404.565 285.594 404.245 285.21 403.905C284.452 403.287 283.706 402.656 282.971 402.01C280.033 399.421 277.289 396.62 274.761 393.628C274.128 392.88 273.509 392.121 272.904 391.35C272.641 391.016 272.163 390.34 273.22 391.764C273.081 391.577 272.937 391.393 272.796 391.207C272.459 390.759 272.126 390.308 271.798 389.854C270.649 388.264 269.557 386.635 268.521 384.966C266.182 381.189 264.14 377.236 262.414 373.142L263.006 374.544C260.182 367.824 258.251 360.763 257.262 353.54L257.472 355.101C256.58 348.444 256.567 341.698 257.434 335.037L257.224 336.598C258.113 330.148 259.848 323.843 262.384 317.846L261.793 319.249C263.388 315.495 265.27 311.869 267.422 308.404C268.5 306.67 269.642 304.979 270.848 303.329C271.122 302.954 271.399 302.582 271.679 302.212C271.932 301.877 272.63 301.043 271.44 302.516C271.557 302.371 271.669 302.223 271.784 302.077C272.446 301.238 273.124 300.413 273.818 299.6C276.445 296.524 279.291 293.641 282.333 290.975C283.102 290.301 283.883 289.641 284.676 288.995C285.037 288.702 285.4 288.412 285.765 288.125C285.911 288.01 286.059 287.897 286.204 287.781C284.641 289.025 285.77 288.12 286.125 287.854C287.76 286.629 289.438 285.465 291.16 284.362C294.988 281.914 299.015 279.791 303.199 278.017L301.797 278.609C307.869 276.058 334.77 270.039 339.663 270.696L338.103 270.487C345.294 271.491 352.323 273.433 359.009 276.264L357.607 275.673C360.996 277.112 364.289 278.766 367.466 280.626C369.054 281.557 370.61 282.539 372.135 283.571C372.857 284.059 373.571 284.559 374.278 285.07C374.631 285.325 374.982 285.583 375.331 285.843C375.525 285.988 375.718 286.135 375.911 286.28C376.724 286.89 374.791 285.397 375.644 286.072C378.496 288.313 381.206 290.732 383.756 293.313C385.008 294.589 386.218 295.905 387.384 297.262C387.982 297.958 388.568 298.664 389.141 299.381C389.427 299.737 390.397 301.025 389.208 299.447C389.498 299.833 389.792 300.216 390.08 300.605C392.552 303.952 394.748 307.496 396.645 311.2C398.048 313.937 402.112 314.958 404.674 313.306C405.991 312.495 406.945 311.208 407.337 309.712C407.729 308.217 407.529 306.627 406.78 305.275Z" fill="#EE5076"/>
<path d="M338.402 401.065C337.797 401.093 337.197 400.934 336.684 400.61C336.172 400.285 335.772 399.811 335.538 399.251C335.304 398.692 335.248 398.074 335.377 397.481C335.506 396.888 335.814 396.35 336.259 395.938C336.333 395.642 336.387 395.429 336.462 395.132C336.435 395.068 336.408 395.003 336.381 394.939C333.658 388.445 316.284 406.548 315.533 412.651C315.202 415.349 315.342 418.084 315.945 420.734C310.318 408.454 307.395 395.108 307.376 381.6C307.375 378.21 307.563 374.823 307.94 371.454C308.252 368.693 308.684 365.951 309.237 363.228C312.253 348.458 318.729 334.613 328.134 322.832C333.512 323.132 338.226 322.312 338.681 311.886C338.762 310.032 340.137 308.426 340.44 306.599C339.927 306.666 339.405 306.708 338.891 306.742C338.731 306.75 338.563 306.759 338.403 306.767L338.343 306.77C337.778 306.795 337.219 306.657 336.731 306.371C336.244 306.086 335.849 305.666 335.595 305.161C335.341 304.657 335.238 304.089 335.298 303.528C335.359 302.966 335.58 302.434 335.936 301.995C336.158 301.722 336.38 301.449 336.602 301.177C336.938 300.756 337.284 300.343 337.62 299.922C337.659 299.882 337.696 299.84 337.73 299.796C338.117 299.316 338.504 298.844 338.891 298.364C338.185 297.267 337.234 296.348 336.114 295.679C332.233 293.405 326.88 294.98 324.077 298.491C321.265 302.002 320.735 306.927 321.711 311.314C322.671 315.046 324.26 318.588 326.408 321.788C326.198 322.057 325.979 322.318 325.768 322.587C321.922 327.535 318.569 332.848 315.758 338.45C316.553 332.237 306.829 309.799 303.069 305.047C298.552 299.338 289.289 301.829 288.493 309.066C288.486 309.136 288.478 309.206 288.471 309.276C289.029 309.591 289.576 309.926 290.111 310.28C290.783 310.729 291.304 311.371 291.605 312.121C291.906 312.871 291.974 313.695 291.799 314.484C291.624 315.274 291.215 315.992 290.625 316.544C290.036 317.097 289.293 317.459 288.494 317.582L288.412 317.595C280.935 328.273 304.904 356.065 310.903 349.825C308.079 357.829 306.308 366.167 305.634 374.628C305.252 379.621 305.275 384.635 305.701 389.624L305.676 389.447C304.343 378.582 281.474 362.428 274.796 363.774C270.949 364.549 267.16 364.373 267.744 368.254C267.753 368.316 267.763 368.378 267.772 368.44C268.809 368.862 269.818 369.349 270.794 369.897C271.353 370.212 271.9 370.547 272.435 370.9C273.107 371.349 273.627 371.991 273.929 372.741C274.23 373.492 274.297 374.315 274.123 375.105C273.948 375.894 273.539 376.612 272.949 377.165C272.359 377.718 271.616 378.079 270.817 378.203L270.735 378.215C270.676 378.224 270.626 378.232 270.567 378.241C267.164 389.954 292.403 408.857 307.747 402.842H307.755C309.276 409.452 311.479 415.885 314.329 422.039H337.814C337.898 421.778 337.974 421.508 338.049 421.247C335.876 421.384 333.693 421.254 331.551 420.86C333.294 418.722 335.036 416.566 336.778 414.428C336.817 414.388 336.854 414.345 336.888 414.301C337.772 413.207 338.664 412.121 339.548 411.026L339.548 411.025C339.595 407.67 339.21 404.323 338.403 401.066L338.402 401.065ZM311.509 348.149L311.522 348.132L311.509 348.166V348.149ZM306.307 395.054L306.105 394.6C306.114 394.271 306.114 393.943 306.105 393.606C306.105 393.513 306.089 393.421 306.089 393.328C306.164 393.909 306.232 394.49 306.316 395.071L306.307 395.054Z" fill="#EE5076"/>
<path d="M74.5264 352.185C79.2798 352.185 83.1332 348.331 83.1332 343.577C83.1332 338.822 79.2798 334.968 74.5264 334.968C69.773 334.968 65.9196 338.822 65.9196 343.577C65.9196 348.331 69.773 352.185 74.5264 352.185Z" fill="#EE5076"/>
<path d="M177.808 446.102C182.562 446.102 186.415 442.247 186.415 437.493C186.415 432.738 182.562 428.884 177.808 428.884C173.055 428.884 169.201 432.738 169.201 437.493C169.201 442.247 173.055 446.102 177.808 446.102Z" fill="#EE5076"/>
<path d="M569.81 446.102C574.563 446.102 578.417 442.247 578.417 437.493C578.417 432.738 574.563 428.884 569.81 428.884C565.057 428.884 561.203 432.738 561.203 437.493C561.203 442.247 565.057 446.102 569.81 446.102Z" fill="#EE5076"/>
<path d="M590.936 336.533C595.689 336.533 599.543 332.678 599.543 327.924C599.543 323.169 595.689 319.315 590.936 319.315C586.182 319.315 582.329 323.169 582.329 327.924C582.329 332.678 586.182 336.533 590.936 336.533Z" fill="#EE5076"/>
<path d="M565.898 256.704C570.651 256.704 574.505 252.85 574.505 248.095C574.505 243.34 570.651 239.486 565.898 239.486C561.144 239.486 557.291 243.34 557.291 248.095C557.291 252.85 561.144 256.704 565.898 256.704Z" fill="#EE5076"/>
<path d="M206.758 327.924C206.753 330.123 205.903 332.236 204.384 333.825C202.865 335.415 200.793 336.359 198.597 336.463C196.4 336.567 194.249 335.822 192.586 334.384C190.923 332.945 189.878 330.921 189.665 328.733C189.452 326.544 190.089 324.357 191.443 322.625C192.797 320.893 194.766 319.747 196.941 319.426C199.116 319.105 201.331 319.633 203.128 320.9C204.924 322.167 206.166 324.076 206.594 326.233C206.705 326.79 206.76 327.356 206.758 327.924Z" fill="#EE5076"/>
<path d="M378.895 281.748C383.648 281.748 387.502 277.894 387.502 273.139C387.502 268.385 383.648 264.53 378.895 264.53C374.142 264.53 370.288 268.385 370.288 273.139C370.288 277.894 374.142 281.748 378.895 281.748Z" fill="#EE5076"/>
<path d="M293.609 273.139C293.604 275.338 292.754 277.451 291.235 279.041C289.715 280.63 287.643 281.575 285.447 281.679C283.251 281.783 281.099 281.038 279.437 279.599C277.774 278.16 276.728 276.137 276.516 273.948C276.303 271.76 276.939 269.573 278.294 267.841C279.648 266.108 281.616 264.963 283.791 264.642C285.966 264.321 288.181 264.848 289.978 266.115C291.775 267.382 293.016 269.292 293.445 271.449C293.555 272.005 293.61 272.572 293.609 273.139Z" fill="#EE5076"/>
<path d="M182.503 248.095C182.498 250.294 181.648 252.407 180.128 253.997C178.609 255.586 176.537 256.53 174.341 256.634C172.145 256.738 169.993 255.994 168.33 254.555C166.668 253.116 165.622 251.093 165.409 248.904C165.197 246.715 165.833 244.529 167.187 242.796C168.542 241.064 170.51 239.919 172.685 239.598C174.86 239.277 177.075 239.804 178.872 241.071C180.669 242.338 181.91 244.248 182.339 246.405C182.449 246.961 182.504 247.528 182.503 248.095Z" fill="#EE5076"/>
<path d="M468.875 355.316C473.629 355.316 477.482 351.462 477.482 346.707C477.482 341.952 473.629 338.098 468.875 338.098C464.122 338.098 460.269 341.952 460.269 346.707C460.269 351.462 464.122 355.316 468.875 355.316Z" fill="#EE5076"/>
<path d="M333.514 277.052C340.428 277.052 346.033 271.446 346.033 264.53C346.033 257.615 340.428 252.008 333.514 252.008C326.599 252.008 320.995 257.615 320.995 264.53C320.995 271.446 326.599 277.052 333.514 277.052Z" fill="#EE5076"/>
<path d="M672.068 446.759L0.931629 447C0.809285 447 0.688136 446.976 0.575105 446.929C0.462074 446.882 0.359378 446.814 0.272867 446.727C0.186357 446.64 0.117725 446.538 0.0709061 446.425C0.0240871 446.312 0 446.19 0 446.068C0 445.946 0.0240871 445.825 0.0709061 445.712C0.117725 445.598 0.186357 445.496 0.272867 445.409C0.359378 445.323 0.462074 445.254 0.575105 445.207C0.688136 445.16 0.809285 445.136 0.931629 445.136L672.068 444.896C672.315 444.896 672.551 444.995 672.725 445.17C672.9 445.344 672.997 445.581 672.997 445.828C672.997 446.074 672.9 446.311 672.725 446.486C672.551 446.66 672.315 446.759 672.068 446.759Z" fill="#CACACA"/>
</svg>
