<svg width="24" height="24" viewBox="0 0 24 24" fill="none" xmlns="http://www.w3.org/2000/svg">
<path d="M11.9992 4.26758C7.73543 4.26758 4.2666 7.73641 4.2666 12.0001C4.2666 16.2639 7.73543 19.7327 11.9992 19.7327C16.2629 19.7327 19.7317 16.2639 19.7317 12.0001C19.7317 7.73641 16.2629 4.26758 11.9992 4.26758ZM11.9992 18.3268C8.51065 18.3268 5.67252 15.4887 5.67252 12.0001C5.67252 8.51163 8.51065 5.6735 11.9992 5.6735C15.4877 5.6735 18.3258 8.51163 18.3258 12.0001C18.3258 15.4887 15.4877 18.3268 11.9992 18.3268Z" fill="#56AEC3"/>
<path d="M15.0168 9.39413L11.2961 13.1148L8.98127 10.8C8.70679 10.5255 8.26168 10.5255 7.98715 10.8C7.71262 11.0746 7.71262 11.5196 7.98715 11.7942L10.799 14.606C10.9363 14.7433 11.1162 14.8119 11.296 14.8119C11.4759 14.8119 11.6558 14.7433 11.7931 14.606L16.0108 10.3883C16.2854 10.1137 16.2854 9.66866 16.0108 9.39413C15.7364 9.1196 15.2913 9.1196 15.0168 9.39413Z" fill="#56AEC3"/>
<path d="M22.9934 7.07168C22.9911 7.07023 20.5382 5.60198 20.5382 5.60198L19.9876 3.32167C19.7433 2.30983 18.8129 1.63354 17.7749 1.71405L14.9797 1.93037C14.9797 1.93037 13.3696 0.509361 13.3665 0.50669C12.5741 -0.168246 11.4238 -0.168246 10.6314 0.50669C10.6283 0.509361 9.01813 1.93037 9.01813 1.93037L6.22297 1.71405C5.19332 1.6341 4.27005 2.29858 4.01652 3.29646L3.25001 5.73882C3.25001 5.73882 1.00958 7.06985 1.00663 7.07168C0.119824 7.61671 -0.235639 8.71066 0.161486 9.67287L1.11789 11.9905L0.161486 14.3081C-0.235639 15.2704 0.119824 16.3643 1.00668 16.9093C1.0094 16.911 3.45748 18.3697 3.45748 18.3697L4.01038 20.6593C4.24151 21.6167 5.08685 22.2735 6.05628 22.2734C6.20455 22.2734 6.038 22.2791 8.98912 22.0529C8.98912 22.0529 10.6288 23.4918 10.6315 23.494C11.0277 23.8315 11.5133 24.0002 11.999 24.0002C12.4847 24.0002 12.9704 23.8315 13.3665 23.494C13.3692 23.4918 15.0089 22.0529 15.0089 22.0529L17.775 22.267C18.8126 22.3471 19.7434 21.6712 19.9876 20.6593L20.5382 18.379C23.5397 16.5823 22.9033 16.9649 22.9934 16.9093C23.8802 16.3643 24.2357 15.2703 23.8385 14.3081L22.8821 11.9904L23.8385 9.67278C24.2356 8.71066 23.8802 7.61676 22.9934 7.07168ZM21.4718 12.2587L22.5389 14.8445C22.6709 15.1642 22.5536 15.5276 22.2601 15.7098L19.5631 17.3243C19.4012 17.4211 19.2851 17.579 19.2408 17.7624L18.6209 20.3295C18.5395 20.6667 18.2299 20.892 17.8834 20.8653L14.8221 20.6284C14.6335 20.6138 14.4465 20.6759 14.3042 20.8009L12.4515 22.4266C12.1886 22.6479 11.8094 22.6479 11.5464 22.4265L9.69386 20.8009C9.55149 20.6759 9.36441 20.6136 9.17597 20.6284L6.11462 20.8653C5.76844 20.892 5.45848 20.6667 5.37708 20.3294L4.75477 17.7522C4.71039 17.5684 4.59374 17.4102 4.43127 17.3133L1.73944 15.7094C1.44636 15.527 1.32929 15.164 1.46117 14.8445L2.52826 12.2586C2.59916 12.0869 2.59916 11.8941 2.52826 11.7223L1.46103 9.13651C1.32924 8.81718 1.44617 8.45431 1.73893 8.27182L4.19929 6.81018C4.34813 6.72175 4.4591 6.58153 4.51094 6.41634C5.41766 3.52544 5.36649 3.69513 5.37698 3.65159C5.45839 3.31436 5.7675 3.08876 6.11453 3.11575L9.20615 3.35504C9.39585 3.36966 9.58303 3.30696 9.72554 3.18122L11.5471 1.5736C11.8096 1.35305 12.1881 1.35305 12.4507 1.5735L14.2723 3.18122C14.4148 3.30705 14.6025 3.36966 14.7917 3.35504L17.8834 3.11575C18.2292 3.08904 18.5395 3.31431 18.6209 3.65164L19.2408 6.21866C19.2851 6.40204 19.4012 6.55993 19.563 6.65684L22.26 8.27121C22.5535 8.45347 22.6709 8.8168 22.5389 9.13651L21.4718 11.7223C21.4009 11.8941 21.4009 12.0869 21.4718 12.2587Z" fill="#56AEC3"/>
</svg>
