<svg width="24" height="24" viewBox="0 0 24 24" fill="none" xmlns="http://www.w3.org/2000/svg">
<path d="M21.8895 12.7045C21.3062 12.7045 20.7437 12.9493 20.346 13.3762L19.7804 13.9834C19.7804 13.4917 19.7804 10.1722 19.7804 9.72421C20.6101 10.0179 21.5571 9.77151 22.13 9.05385C22.8584 8.1442 22.7123 6.81749 21.8007 6.08948L19.7804 4.47323V0.705885C19.7804 0.317619 19.4656 0.0028535 19.0773 0.0028535H16.2652C15.8769 0.0028535 15.5622 0.317619 15.5622 0.705885V1.09865L14.7701 0.464994C13.9946 -0.155021 12.9114 -0.155021 12.1357 0.465135L5.10568 6.0891C4.19326 6.81778 4.04809 8.14476 4.7754 9.05315C5.36265 9.78843 6.32195 10.0104 7.12562 9.72562V12.6262C6.63053 12.7729 6.15446 12.9987 5.71693 13.3039C5.6627 12.1889 4.73865 11.2984 3.61042 11.2984H0.704496C0.31623 11.2984 0.00146484 11.6131 0.00146484 12.0014V23.297C0.00146484 23.6852 0.31623 24 0.704496 24H3.61042C4.53086 24 5.31498 23.4071 5.60218 22.5833C5.64043 22.5898 5.67948 22.5939 5.71956 22.5939H16.2652C17.784 22.5939 19.2558 21.8405 20.2022 20.5785L23.5776 16.0783C23.8531 15.7109 23.9987 15.2736 23.9987 14.8136C23.9987 13.6506 23.0525 12.7045 21.8895 12.7045ZM4.31345 21.8909C4.31345 22.2786 3.99807 22.5939 3.61042 22.5939H1.40757V12.7045H3.61047C3.99812 12.7045 4.3135 13.0199 4.3135 13.4075V21.8909H4.31345ZM16.9682 1.40892H18.3744V3.34837L16.9682 2.22351V1.40892ZM6.86139 8.28529C6.55932 8.52703 6.11706 8.47992 5.87354 8.17499C5.6319 7.87321 5.67817 7.43146 5.98365 7.18743L13.0139 1.56323C13.2725 1.35646 13.6336 1.35656 13.892 1.56309L20.9229 7.18781C21.225 7.42912 21.2765 7.87017 21.0319 8.17579C20.7902 8.47842 20.3482 8.52834 20.0445 8.28515L13.8922 3.36384C13.7638 3.26113 13.6084 3.20976 13.453 3.20976C13.2976 3.20976 13.1422 3.26113 13.0138 3.36384C12.7548 3.57103 7.12103 8.07754 6.86139 8.28529ZM14.8591 9.89226H12.0469C11.6587 9.89226 11.3439 10.207 11.3439 10.5953V13.302C10.502 12.7157 9.51718 12.4214 8.53173 12.4214V8.74963L13.453 4.81307L18.3744 8.74968C18.3744 8.82112 18.3744 14.6176 18.3744 14.6767V15.4928L18.2797 15.5944C18.0127 14.7357 17.2106 14.1105 16.2652 14.1105H15.5622V10.5953C15.5621 10.207 15.2474 9.89226 14.8591 9.89226ZM14.1561 11.2984V14.1105H12.75V11.2984H14.1561ZM22.4526 15.2346L19.0773 19.7349C18.395 20.6447 17.3437 21.1878 16.2652 21.1878H5.71956V15.1314L6.2095 14.7003C7.53339 13.5352 9.53017 13.5352 10.854 14.7003C11.1026 14.9191 11.2095 15.0172 11.3122 15.0948C11.357 15.1287 11.7985 15.5166 12.0469 15.5166C12.1142 15.5166 16.2652 15.5166 16.2652 15.5166C16.6528 15.5166 16.9682 15.832 16.9682 16.2196C16.9682 16.6073 16.6528 16.9227 16.2652 16.9227C15.8154 16.9227 10.7549 16.9227 10.6408 16.9227C10.2526 16.9227 9.93779 17.2374 9.93779 17.6257C9.93779 18.014 10.2526 18.3287 10.6408 18.3287C11.4563 18.3287 16.0908 18.3287 16.7364 18.3287C17.3197 18.3287 17.8821 18.084 18.2797 17.6572L21.3749 14.3345C21.5095 14.19 21.6922 14.1105 21.8895 14.1105C22.2772 14.1105 22.5925 14.4259 22.5925 14.8135C22.5926 14.967 22.5442 15.1126 22.4526 15.2346Z" fill="#56AEC3"/>
</svg>
