<svg width="24" height="24" viewBox="0 0 24 24" fill="none" xmlns="http://www.w3.org/2000/svg">
<path d="M23.7256 12.8308L21.074 10.1791C20.8981 10.0033 20.6597 9.90454 20.411 9.90454C20.1623 9.90454 19.9239 10.0033 19.7481 10.1791L11.6452 18.2821C10.9886 18.9386 10.5454 19.7669 10.3633 20.6774L9.92302 22.8786C9.86152 23.1859 9.95775 23.5037 10.1794 23.7253C10.3569 23.9029 10.5961 23.9999 10.8423 23.9999C10.9035 23.9999 10.965 23.9939 11.0262 23.9817L13.2274 23.5414H13.2274C14.1379 23.3593 14.9661 22.9161 15.6227 22.2595L23.7256 14.1566C24.0917 13.7905 24.0917 13.1969 23.7256 12.8308ZM14.2968 20.9337C13.9029 21.3277 13.4059 21.5936 12.8597 21.7028L12.0374 21.8673L12.2018 21.045C12.3111 20.4987 12.5771 20.0017 12.971 19.6078L20.411 12.1678L21.7368 13.4936L14.2968 20.9337Z" fill="#56AEC3"/>
<path d="M7.01855 22.125H2.8125C2.29556 22.125 1.875 21.7044 1.875 21.1875V2.8125C1.875 2.29556 2.29556 1.875 2.8125 1.875H11.25V4.6875C11.25 6.23831 12.5117 7.5 14.0625 7.5H16.875V8.13759C16.875 8.65538 17.2947 9.07509 17.8125 9.07509C18.3303 9.07509 18.75 8.65538 18.75 8.13759V6.56245C18.75 6.30867 18.6429 6.06534 18.4749 5.89913L12.8505 0.274594C12.6774 0.101625 12.4351 0 12.1875 0H2.8125C1.26169 0 0 1.26169 0 2.8125V21.1875C0 22.7383 1.26169 24 2.8125 24H7.01855C7.53633 24 7.95605 23.5803 7.95605 23.0625C7.95605 22.5447 7.53628 22.125 7.01855 22.125ZM14.0625 5.625C13.5456 5.625 13.125 5.20444 13.125 4.6875V3.20081L15.5492 5.625H14.0625Z" fill="#56AEC3"/>
<path d="M15 9.9375C15 9.41972 14.5803 9 14.0625 9H4.6875C4.16972 9 3.75 9.41972 3.75 9.9375C3.75 10.4553 4.16972 10.875 4.6875 10.875H14.0625C14.5803 10.875 15 10.4553 15 9.9375Z" fill="#56AEC3"/>
<path d="M4.6875 12.75C4.16972 12.75 3.75 13.1697 3.75 13.6875C3.75 14.2053 4.16972 14.625 4.6875 14.625H12.2626C12.7804 14.625 13.2001 14.2053 13.2001 13.6875C13.2001 13.1697 12.7804 12.75 12.2626 12.75H4.6875Z" fill="#56AEC3"/>
<path d="M8.71744 16.5H4.6875C4.16972 16.5 3.75 16.9197 3.75 17.4375C3.75 17.9553 4.16972 18.375 4.6875 18.375H8.71744C9.23522 18.375 9.65494 17.9553 9.65494 17.4375C9.65494 16.9197 9.23522 16.5 8.71744 16.5Z" fill="#56AEC3"/>
</svg>
